<?xml version="1.0" standalone="no"?>
<!DOCTYPE svg PUBLIC "-//W3C//DTD SVG 20010904//EN"
  "http://www.w3.org/TR/2001/REC-SVG-20010904/DTD/svg10.dtd">
<svg version="1.0" xmlns="http://www.w3.org/2000/svg"
     width="1555.000000pt" height="454.000000pt" viewBox="0 0 1555.000000 454.000000"
     preserveAspectRatio="xMidYMid meet">

  <g transform="translate(0.000000,454.000000) scale(0.100000,-0.100000)"
     fill="#000000" stroke="none">
    <path d="M1990 4410 c-257 -40 -431 -92 -630 -191 -241 -120 -434 -260 -597
-432 -311 -331 -493 -696 -569 -1142 -25 -142 -24 -499 0 -649 142 -876 791
-1556 1665 -1744 121 -26 138 -27 421 -26 284 0 300 1 420 27 353 77 643 213
900 421 404 328 648 731 756 1251 35 170 44 475 19 660 -48 359 -174 680 -385
977 -79 112 -286 328 -395 413 -296 231 -658 385 -1015 434 -41 5 -163 12
-270 15 -161 4 -217 2 -320 -14z m530 -25 c456 -57 859 -243 1182 -547 343
-323 554 -718 635 -1191 28 -159 25 -532 -5 -689 -28 -151 -78 -314 -141 -464
-102 -240 -217 -408 -421 -618 -339 -347 -708 -537 -1190 -613 -153 -24 -451
-24 -604 0 -742 117 -1367 615 -1634 1302 -266 686 -151 1461 303 2040 81 103
289 306 385 377 324 237 669 370 1070 411 94 10 309 5 420 -8z"/>
    <path d="M1990 4324 c-52 -8 -120 -21 -150 -27 l-55 -12 -3 -383 -2 -382 269
0 269 0 301 357 c166 196 298 360 294 364 -10 10 -181 53 -293 74 -124 24
-504 29 -630 9z"/>
    <path d="M1556 4210 c-54 -21 -104 -44 -109 -49 -9 -9 70 -122 210 -300 10
-13 12 25 13 187 0 111 -3 202 -7 201 -5 0 -53 -18 -107 -39z"/>
    <path d="M2857 3998 c-223 -262 -344 -406 -370 -442 l-21 -29 698 7 c384 4
704 10 712 13 18 6 -17 51 -134 175 -159 166 -377 324 -586 424 -63 30 -117
54 -120 54 -3 0 -84 -91 -179 -202z"/>
    <path d="M1285 4082 c-146 -80 -295 -194 -435 -331 -89 -89 -215 -240 -206
-248 3 -3 237 -2 521 2 l515 7 0 73 0 74 -77 103 c-65 87 -242 318 -262 340
-3 4 -29 -5 -56 -20z"/>
    <path d="M3305 3329 c-176 -4 -438 -7 -582 -8 -144 0 -264 -5 -267 -9 -3 -5
68 -69 157 -143 89 -74 329 -275 534 -446 204 -172 378 -313 384 -313 16 0
721 279 732 289 23 22 -72 318 -161 504 l-66 139 -206 -4 c-113 -1 -349 -6
-525 -9z"/>
    <path d="M1025 3297 c-464 -8 -521 -11 -532 -26 -20 -27 -93 -197 -128 -301
-42 -122 -85 -314 -92 -407 l-6 -73 78 -35 c58 -27 363 -153 511 -212 12 -5
102 71 537 452 l286 250 1 183 0 182 -67 -2 c-38 -1 -302 -6 -588 -11z"/>
    <path d="M1787 3303 c-9 -8 -9 -413 0 -801 l6 -302 121 0 121 0 89 -150 c49
-83 93 -153 97 -156 5 -3 37 6 72 20 74 29 533 213 847 338 124 50 233 92 243
95 9 3 17 9 17 13 0 15 -119 117 -755 649 l-360 301 -246 0 c-135 0 -249 -3
-252 -7z"/>
    <path d="M1552 2698 c-306 -264 -571 -503 -564 -509 9 -9 398 -169 409 -169 4
0 29 37 54 83 l46 82 92 3 91 3 0 304 c0 168 -2 305 -5 305 -2 0 -58 -46 -123
-102z"/>
    <path d="M4020 2490 c-135 -55 -278 -111 -317 -126 -40 -15 -73 -30 -73 -35 0
-11 334 -297 378 -323 8 -5 65 27 151 84 l139 91 7 59 c12 100 -9 351 -28 349
-7 0 -122 -45 -257 -99z"/>
    <path d="M260 2268 c0 -57 5 -142 10 -188 13 -100 48 -278 59 -298 6 -11 47
20 167 126 223 197 280 249 274 254 -7 6 -460 194 -487 202 -23 7 -23 7 -23
-96z"/>
    <path d="M3455 2266 c-16 -7 -283 -114 -592 -237 -310 -123 -559 -226 -555
-230 9 -9 292 -104 665 -224 l297 -96 128 86 c103 70 388 267 502 347 l25 18
-45 40 c-111 101 -363 305 -378 307 -10 1 -30 -4 -47 -11z"/>
    <path d="M825 2058 c-192 -163 -455 -402 -455 -414 0 -7 14 -30 32 -50 55 -63
357 -324 374 -324 19 0 564 227 578 240 5 5 -17 52 -52 112 l-61 103 49 92
c28 50 50 96 50 101 0 6 -19 17 -42 27 -24 9 -122 50 -219 91 -97 41 -181 74
-185 73 -5 0 -36 -23 -69 -51z"/>
    <path d="M1537 2088 c-40 -64 -197 -352 -197 -360 0 -6 50 -93 111 -195 l112
-186 216 8 c175 6 217 10 226 22 7 9 55 93 109 188 l97 173 -61 103 c-33 57
-81 141 -108 186 l-47 83 -222 0 c-220 0 -223 0 -236 -22z"/>
    <path d="M4192 1986 l-92 -63 62 -52 c35 -28 68 -51 74 -51 11 0 59 218 51
226 -2 2 -45 -25 -95 -60z"/>
    <path d="M3710 1655 c-162 -112 -296 -208 -297 -212 -3 -8 548 -194 573 -193
15 0 54 60 107 166 37 75 117 264 117 278 0 6 -193 166 -200 166 -3 0 -138
-92 -300 -205z"/>
    <path d="M2273 1678 c-4 -7 -56 -98 -114 -203 l-107 -190 -112 -7 c-61 -3
-113 -8 -115 -10 -8 -8 -23 -773 -16 -781 7 -7 253 160 1187 804 84 57 150
107 148 111 -3 5 -691 236 -841 282 -13 4 -25 2 -30 -6z"/>
    <path d="M1395 1409 c-220 -90 -512 -214 -519 -220 -10 -9 79 -93 323 -310 96
-85 247 -218 335 -297 l161 -143 6 188 c4 103 7 290 8 416 l1 227 -99 0 -99 0
-42 70 c-23 39 -45 72 -49 74 -3 2 -15 0 -26 -5z"/>
    <path d="M515 1331 c26 -52 85 -141 93 -141 4 1 17 6 30 13 24 14 26 12 -102
127 l-38 35 17 -34z"/>
    <path d="M3085 1228 c-104 -72 -253 -174 -330 -228 -77 -53 -257 -177 -400
-275 -410 -281 -528 -366 -518 -375 36 -34 464 -62 648 -41 380 41 730 181
1040 415 149 113 421 404 397 428 -10 10 -613 208 -632 207 -8 0 -100 -59
-205 -131z"/>
    <path d="M710 1122 c-19 -9 -37 -17 -39 -19 -18 -12 224 -263 349 -363 47 -37
119 -89 160 -115 113 -72 350 -195 350 -182 0 2 -93 87 -207 188 -114 101
-279 248 -367 327 -215 192 -203 183 -246 164z"/>
    <path d="M6670 2315 l0 -595 100 0 100 0 0 258 0 258 28 55 c66 131 266 161
361 54 43 -50 51 -107 51 -380 l0 -245 100 0 100 0 0 258 c0 280 -8 360 -45
431 -55 107 -148 162 -288 169 -110 6 -200 -16 -263 -64 l-44 -34 -2 213 -3
212 -97 3 -98 3 0 -596z"/>
    <path d="M13180 2315 l0 -595 100 0 100 0 -2 593 -3 592 -97 3 -98 3 0 -596z"/>
    <path d="M4995 2333 c-126 -280 -239 -532 -252 -560 l-23 -53 108 0 107 0 55
130 54 130 281 0 280 0 55 -130 55 -130 108 0 c59 0 107 2 107 4 0 3 -448 998
-490 1089 -13 27 -14 27 -115 27 l-102 0 -228 -507z m440 43 c52 -121 95 -223
95 -228 0 -4 -92 -8 -205 -8 -113 0 -205 3 -205 8 0 4 46 114 102 246 77 178
104 233 110 220 4 -11 51 -118 103 -238z"/>
    <path d="M10970 2280 l0 -560 105 0 105 0 0 240 0 240 290 0 290 0 0 -240 0
-240 105 0 105 0 0 560 0 560 -105 0 -105 0 0 -230 0 -230 -290 0 -290 0 0
230 0 230 -105 0 -105 0 0 -560z"/>
    <path d="M6050 2665 l0 -95 -70 0 -70 0 0 -80 0 -80 69 0 69 0 4 -252 c3 -232
5 -257 24 -298 48 -104 153 -156 293 -148 78 5 161 36 161 60 0 7 -10 38 -22
71 -20 49 -26 57 -43 52 -109 -34 -168 -23 -197 35 -16 30 -18 66 -18 258 l0
222 115 0 115 0 0 80 0 80 -115 0 -115 0 0 95 0 95 -100 0 -100 0 0 -95z"/>
    <path d="M7955 2563 c-199 -72 -306 -235 -292 -447 11 -183 111 -316 282 -377
74 -27 218 -36 297 -20 72 15 165 61 202 100 l29 30 -52 60 -53 61 -33 -26
c-119 -90 -313 -84 -407 13 -31 32 -68 96 -68 118 0 3 151 5 335 5 l335 0 0
68 c-1 180 -87 324 -237 394 -60 29 -79 32 -178 35 -87 3 -121 0 -160 -14z
m243 -159 c65 -27 141 -119 142 -171 0 -10 -55 -13 -240 -13 -185 0 -240 3
-240 13 1 24 38 93 66 121 16 16 47 37 69 47 50 23 152 25 203 3z"/>
    <path d="M9045 2566 c-53 -17 -96 -40 -134 -72 l-31 -26 0 51 0 51 -95 0 -95
0 0 -425 0 -425 100 0 100 0 0 238 c0 272 8 317 67 383 92 102 292 86 349 -28
17 -34 19 -66 22 -315 l3 -278 100 0 100 0 -3 309 -3 308 -35 69 c-40 78 -102
132 -182 158 -60 19 -205 20 -263 2z"/>
    <path d="M9902 2565 c-61 -17 -84 -28 -130 -63 -100 -76 -120 -237 -40 -328
53 -60 104 -79 298 -114 129 -24 167 -40 176 -76 21 -84 -92 -130 -256 -105
-61 10 -119 29 -207 67 -7 4 -26 -22 -47 -65 -20 -39 -36 -73 -36 -76 0 -4 28
-19 63 -35 156 -71 383 -80 521 -20 59 25 115 77 137 125 27 59 25 159 -4 207
-46 76 -94 98 -295 138 -165 33 -195 48 -200 102 -3 29 2 40 28 61 56 48 216
49 329 4 l62 -25 37 74 c42 86 44 82 -58 115 -86 28 -300 36 -378 14z"/>
    <path d="M12438 2561 c-202 -65 -322 -265 -289 -481 36 -228 215 -370 468
-370 96 0 193 26 260 69 91 59 91 59 31 127 -28 32 -56 58 -61 56 -5 -1 -24
-14 -43 -28 -97 -74 -283 -71 -377 7 -37 31 -77 94 -77 124 0 13 39 15 329 15
379 0 348 -9 336 103 -20 192 -117 320 -283 376 -80 27 -213 28 -294 2z m280
-174 c48 -31 89 -87 98 -135 l7 -32 -241 0 -241 0 8 28 c14 49 39 89 73 117
54 46 86 55 174 53 69 -3 87 -7 122 -31z"/>
    <path d="M13955 2566 c-57 -18 -96 -40 -124 -70 -14 -14 -28 -26 -33 -26 -4 0
-8 23 -8 50 l0 50 -95 0 -95 0 0 -580 0 -580 100 0 100 0 0 205 0 205 44 -34
c73 -56 126 -71 246 -71 98 0 110 3 177 34 163 76 254 238 240 431 -17 245
-186 401 -430 399 -45 0 -100 -6 -122 -13z m233 -189 c123 -81 156 -254 74
-386 -74 -120 -250 -146 -369 -56 -107 82 -121 283 -29 392 56 65 105 85 202
81 68 -3 87 -7 122 -31z"/>
    <path d="M12680 880 l0 -280 25 0 25 0 0 118 c0 64 5 134 10 154 14 51 52 78
107 78 90 0 103 -27 103 -216 l0 -134 25 0 25 0 0 165 0 165 -28 31 c-47 52
-165 54 -216 2 l-26 -26 0 112 0 111 -25 0 -25 0 0 -280z"/>
    <path d="M12224 1126 c-11 -28 1 -51 27 -54 29 -3 44 18 34 49 -8 23 -53 26
-61 5z"/>
    <path d="M13497 1129 c-55 -13 -90 -33 -124 -72 -50 -57 -66 -113 -61 -214 6
-127 44 -191 133 -229 43 -18 137 -23 198 -11 30 7 37 12 37 32 0 23 -1 24
-69 18 -91 -8 -134 2 -176 39 -45 39 -70 118 -62 199 11 120 67 180 173 187
35 2 78 -1 96 -7 28 -10 35 -9 46 6 19 26 10 37 -44 50 -59 13 -96 14 -147 2z"/>
    <path d="M13935 1126 c-35 -10 -61 -27 -91 -59 -49 -51 -67 -103 -68 -197 -1
-172 85 -272 234 -273 87 -1 131 16 179 68 87 94 95 267 17 385 -47 71 -167
105 -271 76z m175 -65 c56 -29 84 -95 84 -195 0 -64 -5 -91 -22 -126 -32 -66
-63 -84 -147 -88 -60 -3 -75 0 -104 20 -57 38 -75 79 -79 183 -3 79 0 96 20
135 33 64 76 90 152 90 41 0 73 -6 96 -19z"/>
    <path d="M14310 1128 c0 -2 42 -120 94 -263 92 -257 93 -260 123 -263 l30 -3
73 203 c40 112 83 231 96 266 l23 62 -33 0 -33 0 -72 -212 c-40 -117 -75 -219
-77 -227 -3 -8 -33 69 -68 170 -100 289 -89 264 -124 267 -18 2 -32 2 -32 0z"/>
    <path d="M14820 865 l0 -265 30 0 30 0 0 265 0 265 -30 0 -30 0 0 -265z"/>
    <path d="M15030 864 l0 -266 118 4 c127 5 176 19 225 66 99 93 102 297 7 392
-52 52 -115 70 -247 70 l-103 0 0 -266z m222 206 c44 -13 93 -51 112 -89 35
-67 28 -192 -15 -252 -32 -45 -91 -70 -181 -76 l-78 -6 0 217 0 216 63 0 c34
0 79 -5 99 -10z"/>
    <path d="M12429 1046 c-9 -36 -17 -47 -40 -55 -39 -14 -39 -41 1 -41 l30 0 0
-140 c0 -146 8 -181 44 -198 60 -29 126 -22 126 12 0 19 -5 21 -33 18 -22 -2
-41 3 -57 16 -24 19 -25 26 -28 156 l-4 136 61 0 c58 0 61 1 61 25 0 24 -3 25
-60 25 l-60 0 0 45 c0 61 -25 62 -41 1z"/>
    <path d="M11595 988 c2 -7 20 -74 40 -148 70 -260 62 -240 100 -240 l34 0 40
130 c23 71 44 143 47 160 4 16 10 30 14 30 4 0 14 -28 24 -62 9 -35 31 -107
48 -161 l31 -98 35 3 35 3 47 170 c69 250 65 225 31 225 -32 0 -32 0 -92 -244
l-22 -90 -29 95 c-72 235 -71 234 -106 237 l-31 3 -46 -148 c-25 -81 -49 -157
-52 -168 -4 -13 -22 41 -48 145 l-41 165 -32 3 c-23 2 -31 0 -27 -10z"/>
    <path d="M12230 800 l0 -200 25 0 25 0 0 200 0 200 -25 0 -25 0 0 -200z"/>
  </g>
</svg>
